<?xml version="1.0" encoding="UTF-8"?>
<!DOCTYPE svg PUBLIC "-//W3C//DTD SVG 1.1//EN" "http://www.w3.org/Graphics/SVG/1.1/DTD/svg11.dtd">
<svg xmlns="http://www.w3.org/2000/svg" version="1.1" viewBox="0 0 1080 846" style="shape-rendering:geometricPrecision; text-rendering:geometricPrecision; image-rendering:optimizeQuality; fill-rule:evenodd; clip-rule:evenodd" xmlns:xlink="http://www.w3.org/1999/xlink">
  <g>
    <path style="opacity:1" fill="#9dcafe" d="M -0.5,-0.5 C 359.5,-0.5 719.5,-0.5 1079.5,-0.5C 1079.5,55.8333 1079.5,112.167 1079.5,168.5C 1027.17,168.5 974.833,168.5 922.5,168.5C 914.764,132.989 907.598,97.3223 901,61.5C 900.612,60.572 899.945,59.9054 899,59.5C 893.199,60.7333 887.365,61.7333 881.5,62.5C 880.178,62.67 879.011,62.3366 878,61.5C 876.379,54.563 875.212,47.563 874.5,40.5C 859.19,43.0446 843.857,45.5446 828.5,48C 827.484,48.5194 826.818,49.3527 826.5,50.5C 834.428,89.8069 842.095,129.14 849.5,168.5C 786.167,168.5 722.833,168.5 659.5,168.5C 655.671,154.183 652.004,139.85 648.5,125.5C 640.73,126.693 633.063,128.359 625.5,130.5C 623.344,122.876 621.344,115.209 619.5,107.5C 603.95,110.221 588.617,113.887 573.5,118.5C 573.167,119.167 572.833,119.833 572.5,120.5C 576.582,136.582 580.916,152.582 585.5,168.5C 515.5,168.5 445.5,168.5 375.5,168.5C 375.411,164.7 376.078,161.034 377.5,157.5C 377.167,156.833 376.833,156.167 376.5,155.5C 361.167,151.833 345.833,148.167 330.5,144.5C 328.828,152.512 327.161,160.512 325.5,168.5C 217.167,168.5 108.833,168.5 0.5,168.5C 0.166667,168.5 -0.166667,168.5 -0.5,168.5C -0.5,112.167 -0.5,55.8333 -0.5,-0.5 Z" />
  </g>
  <g>
    <path style="opacity:1" fill="#9d94ec" d="M 881.5,62.5 C 880.602,63.1577 879.602,63.8243 878.5,64.5C 908.493,216.133 938.493,367.8 968.5,519.5C 956.728,552.903 936.395,579.737 907.5,600C 878.744,617.403 848.078,621.903 815.5,613.5C 798.175,608.16 783.842,598.493 772.5,584.5C 757.891,561.744 750.891,536.744 751.5,509.5C 761.378,470.128 786.378,445.961 826.5,437C 852.611,432.028 878.611,432.528 904.5,438.5C 904.833,437.667 905.167,436.833 905.5,436C 898.765,403.156 892.098,370.322 885.5,337.5C 873.81,280.996 861.81,224.663 849.5,168.5C 842.095,129.14 834.428,89.8069 826.5,50.5C 826.818,49.3527 827.484,48.5194 828.5,48C 843.857,45.5446 859.19,43.0446 874.5,40.5C 875.212,47.563 876.379,54.563 878,61.5C 879.011,62.3366 880.178,62.67 881.5,62.5 Z" />
  </g>
  <g>
    <path style="opacity:1" fill="#330265" d="M 922.5,168.5 C 933.372,224.859 944.372,281.192 955.5,337.5C 967.089,395.11 978.422,452.777 989.5,510.5C 991.287,518.099 992.954,525.765 994.5,533.5C 982.312,568.177 960.978,595.677 930.5,616C 903.065,631.444 874.065,635.444 843.5,628C 833.099,624.968 823.766,620.135 815.5,613.5C 848.078,621.903 878.744,617.403 907.5,600C 936.395,579.737 956.728,552.903 968.5,519.5C 938.493,367.8 908.493,216.133 878.5,64.5C 879.602,63.8243 880.602,63.1577 881.5,62.5C 887.365,61.7333 893.199,60.7333 899,59.5C 899.945,59.9054 900.612,60.572 901,61.5C 907.598,97.3223 914.764,132.989 922.5,168.5 Z" />
  </g>
  <g>
    <path style="opacity:1" fill="#9d94ec" d="M 625.5,130.5 C 666.146,279.75 706.479,429.083 746.5,578.5C 737.163,612.025 719.163,639.858 692.5,662C 664.404,682.117 633.404,689.283 599.5,683.5C 595.429,681.252 591.095,679.586 586.5,678.5C 568.658,671.479 555.158,659.479 546,642.5C 541.226,632.966 537.059,623.3 533.5,613.5C 531.589,600.238 531.089,586.904 532,573.5C 534.83,565.229 536.663,556.896 537.5,548.5C 537.337,550.857 537.503,553.19 538,555.5C 548.524,534.808 564.357,519.808 585.5,510.5C 604.884,502.907 625.051,499.241 646,499.5C 656.494,500.061 666.994,500.394 677.5,500.5C 663.261,445.87 648.261,391.537 632.5,337.5C 617.03,281.094 601.364,224.761 585.5,168.5C 580.916,152.582 576.582,136.582 572.5,120.5C 572.833,119.833 573.167,119.167 573.5,118.5C 588.617,113.887 603.95,110.221 619.5,107.5C 621.344,115.209 623.344,122.876 625.5,130.5 Z" />
  </g>
  <g>
    <path style="opacity:1" fill="#330265" d="M 659.5,168.5 C 674.989,224.789 690.322,281.123 705.5,337.5C 721.15,394.77 736.484,452.103 751.5,509.5C 750.891,536.744 757.891,561.744 772.5,584.5C 773.548,587.789 774.048,591.122 774,594.5C 763.956,628.976 744.79,656.976 716.5,678.5C 687.095,697.512 655.428,702.679 621.5,694C 613.745,691.288 606.412,687.788 599.5,683.5C 633.404,689.283 664.404,682.117 692.5,662C 719.163,639.858 737.163,612.025 746.5,578.5C 706.479,429.083 666.146,279.75 625.5,130.5C 633.063,128.359 640.73,126.693 648.5,125.5C 652.004,139.85 655.671,154.183 659.5,168.5 Z" />
  </g>
  <g>
    <path style="opacity:1" fill="#9e94ec" d="M 375.5,168.5 C 374.566,169.568 374.232,170.901 374.5,172.5C 343.422,326.388 312.255,480.388 281,634.5C 252.483,666.257 216.817,683.59 174,686.5C 160.375,686.634 147.209,684.301 134.5,679.5C 133.609,678.89 132.609,678.557 131.5,678.5C 81.7235,655.6 63.5568,617.267 77,563.5C 84.0694,539.952 98.2361,522.285 119.5,510.5C 141.756,500.668 164.756,498.834 188.5,505C 194.822,506.941 201.155,508.775 207.5,510.5C 223.707,517.021 239.207,525.021 254,534.5C 255.952,526.573 257.452,518.573 258.5,510.5C 270.58,453.1 281.913,395.434 292.5,337.5C 303.113,281.099 314.113,224.766 325.5,168.5C 327.161,160.512 328.828,152.512 330.5,144.5C 345.833,148.167 361.167,151.833 376.5,155.5C 376.833,156.167 377.167,156.833 377.5,157.5C 376.078,161.034 375.411,164.7 375.5,168.5 Z" />
  </g>
  <g>
    <path style="opacity:1" fill="#fefefe" d="M -0.5,168.5 C -0.166667,168.5 0.166667,168.5 0.5,168.5C 0.5,224.833 0.5,281.167 0.5,337.5C 97.8333,337.5 195.167,337.5 292.5,337.5C 281.913,395.434 270.58,453.1 258.5,510.5C 241.5,510.5 224.5,510.5 207.5,510.5C 201.155,508.775 194.822,506.941 188.5,505C 164.756,498.834 141.756,500.668 119.5,510.5C 79.8333,510.5 40.1667,510.5 0.5,510.5C 0.5,566.5 0.5,622.5 0.5,678.5C 0.5,734.167 0.5,789.833 0.5,845.5C 0.166667,845.5 -0.166667,845.5 -0.5,845.5C -0.5,619.833 -0.5,394.167 -0.5,168.5 Z" />
  </g>
  <g>
    <path style="opacity:1" fill="#fec4f0" d="M 0.5,168.5 C 108.833,168.5 217.167,168.5 325.5,168.5C 314.113,224.766 303.113,281.099 292.5,337.5C 195.167,337.5 97.8333,337.5 0.5,337.5C 0.5,281.167 0.5,224.833 0.5,168.5 Z" />
  </g>
  <g>
    <path style="opacity:1" fill="#fec3ef" d="M 375.5,168.5 C 445.5,168.5 515.5,168.5 585.5,168.5C 601.364,224.761 617.03,281.094 632.5,337.5C 604.833,337.5 577.167,337.5 549.5,337.5C 551.298,302.154 553.298,266.821 555.5,231.5C 545.488,230.986 535.488,230.32 525.5,229.5C 525.5,224.167 525.5,218.833 525.5,213.5C 509.48,212.806 493.48,211.806 477.5,210.5C 475.222,252.504 472.889,294.504 470.5,336.5C 439.5,336.5 408.5,336.5 377.5,336.5C 387.258,284.541 397.592,232.708 408.5,181C 397.297,177.655 385.963,174.821 374.5,172.5C 374.232,170.901 374.566,169.568 375.5,168.5 Z" />
  </g>
  <g>
    <path style="opacity:1" fill="#fec4ef" d="M 659.5,168.5 C 722.833,168.5 786.167,168.5 849.5,168.5C 861.81,224.663 873.81,280.996 885.5,337.5C 825.5,337.5 765.5,337.5 705.5,337.5C 690.322,281.123 674.989,224.789 659.5,168.5 Z" />
  </g>
  <g>
    <path style="opacity:1" fill="#fec4ef" d="M 922.5,168.5 C 974.833,168.5 1027.17,168.5 1079.5,168.5C 1079.5,224.833 1079.5,281.167 1079.5,337.5C 1038.17,337.5 996.833,337.5 955.5,337.5C 944.372,281.192 933.372,224.859 922.5,168.5 Z" />
  </g>
  <g>
    <path style="opacity:1" fill="#330165" d="M 374.5,172.5 C 385.963,174.821 397.297,177.655 408.5,181C 397.592,232.708 387.258,284.541 377.5,336.5C 376.662,336.842 376.328,337.508 376.5,338.5C 364.911,395.444 353.578,452.444 342.5,509.5C 335.887,539.233 329.887,569.233 324.5,599.5C 296.543,619.082 283.21,646.082 284.5,680.5C 253.927,702.189 220.094,710.189 183,704.5C 164.441,700.473 148.275,692.14 134.5,679.5C 147.209,684.301 160.375,686.634 174,686.5C 216.817,683.59 252.483,666.257 281,634.5C 312.255,480.388 343.422,326.388 374.5,172.5 Z" />
  </g>
  <g>
    <path style="opacity:1" fill="#9d94ec" d="M 525.5,229.5 C 515.948,386.986 506.781,544.653 498,702.5C 481.155,726.016 459.989,744.516 434.5,758C 410.486,769.003 385.486,772.169 359.5,767.5C 313.229,756.579 288.229,727.579 284.5,680.5C 283.21,646.082 296.543,619.082 324.5,599.5C 343.425,588.855 363.759,584.689 385.5,587C 410.544,589.76 434.544,596.26 457.5,606.5C 459.218,574.499 460.885,542.499 462.5,510.5C 465.167,452.835 467.833,395.169 470.5,337.5C 470.5,337.167 470.5,336.833 470.5,336.5C 472.889,294.504 475.222,252.504 477.5,210.5C 493.48,211.806 509.48,212.806 525.5,213.5C 525.5,218.833 525.5,224.167 525.5,229.5 Z" />
  </g>
  <g>
    <path style="opacity:1" fill="#330165" d="M 525.5,229.5 C 535.488,230.32 545.488,230.986 555.5,231.5C 553.298,266.821 551.298,302.154 549.5,337.5C 545.835,395.132 542.502,452.799 539.5,510.5C 538.612,523.154 537.946,535.821 537.5,548.5C 536.663,556.896 534.83,565.229 532,573.5C 531.089,586.904 531.589,600.238 533.5,613.5C 532.539,633.835 531.539,654.169 530.5,674.5C 529.781,688.434 528.615,702.434 527,716.5C 510.063,740.77 488.23,759.27 461.5,772C 430.602,785.409 399.602,785.742 368.5,773C 365.102,771.643 362.102,769.81 359.5,767.5C 385.486,772.169 410.486,769.003 434.5,758C 459.989,744.516 481.155,726.016 498,702.5C 506.781,544.653 515.948,386.986 525.5,229.5 Z" />
  </g>
  <g>
    <path style="opacity:1" fill="#fddcf5" d="M 377.5,336.5 C 408.5,336.5 439.5,336.5 470.5,336.5C 470.5,336.833 470.5,337.167 470.5,337.5C 439.093,337.175 407.76,337.508 376.5,338.5C 376.328,337.508 376.662,336.842 377.5,336.5 Z" />
  </g>
  <g>
    <path style="opacity:1" fill="#fefefe" d="M 470.5,337.5 C 467.833,395.169 465.167,452.835 462.5,510.5C 422.33,510.832 382.33,510.499 342.5,509.5C 353.578,452.444 364.911,395.444 376.5,338.5C 407.76,337.508 439.093,337.175 470.5,337.5 Z" />
  </g>
  <g>
    <path style="opacity:1" fill="#fefefe" d="M 549.5,337.5 C 577.167,337.5 604.833,337.5 632.5,337.5C 648.261,391.537 663.261,445.87 677.5,500.5C 666.994,500.394 656.494,500.061 646,499.5C 625.051,499.241 604.884,502.907 585.5,510.5C 570.167,510.5 554.833,510.5 539.5,510.5C 542.502,452.799 545.835,395.132 549.5,337.5 Z" />
  </g>
  <g>
    <path style="opacity:1" fill="#fefefe" d="M 705.5,337.5 C 765.5,337.5 825.5,337.5 885.5,337.5C 892.098,370.322 898.765,403.156 905.5,436C 905.167,436.833 904.833,437.667 904.5,438.5C 878.611,432.528 852.611,432.028 826.5,437C 786.378,445.961 761.378,470.128 751.5,509.5C 736.484,452.103 721.15,394.77 705.5,337.5 Z" />
  </g>
  <g>
    <path style="opacity:1" fill="#fefefe" d="M 955.5,337.5 C 996.833,337.5 1038.17,337.5 1079.5,337.5C 1079.5,395.167 1079.5,452.833 1079.5,510.5C 1049.5,510.5 1019.5,510.5 989.5,510.5C 978.422,452.777 967.089,395.11 955.5,337.5 Z" />
  </g>
  <g>
    <path style="opacity:1" fill="#fdfdfe" d="M 894.5,485.5 C 901.264,495.944 901.097,506.277 894,516.5C 889.812,521.335 884.978,525.335 879.5,528.5C 888.332,549.639 882.999,566.473 863.5,579C 849.48,587.093 834.813,588.593 819.5,583.5C 810.375,578.526 804.875,570.859 803,560.5C 802.736,532.734 804.402,505.067 808,477.5C 809.442,473.725 811.942,470.892 815.5,469C 836.807,461.166 857.807,461.833 878.5,471C 884.653,474.989 889.986,479.822 894.5,485.5 Z" />
  </g>
  <g>
    <path style="opacity:1" fill="#593796" d="M 902.5,491.5 C 909.869,503.801 909.035,515.468 900,526.5C 896.117,530.05 891.951,533.217 887.5,536C 894.896,549.846 893.729,563.012 884,575.5C 867.993,592.46 848.826,597.46 826.5,590.5C 823.973,588.395 821.64,586.061 819.5,583.5C 834.813,588.593 849.48,587.093 863.5,579C 882.999,566.473 888.332,549.639 879.5,528.5C 884.978,525.335 889.812,521.335 894,516.5C 901.097,506.277 901.264,495.944 894.5,485.5C 894.435,485.062 894.601,484.728 895,484.5C 897.37,487.039 899.87,489.372 902.5,491.5 Z" />
  </g>
  <g>
    <path style="opacity:1" fill="#5b3997" d="M 871.5,498.5 C 871.631,499.376 871.298,500.043 870.5,500.5C 861.746,496.629 852.746,495.795 843.5,498C 841.084,502.416 840.084,507.25 840.5,512.5C 837.713,513.477 834.713,513.81 831.5,513.5C 831.747,505.755 832.747,498.255 834.5,491C 848.124,487.497 860.457,489.997 871.5,498.5 Z" />
  </g>
  <g>
    <path style="opacity:1" fill="#7d68c4" d="M 902.5,491.5 C 921.64,511.554 919.307,528.887 895.5,543.5C 903.831,559.589 901.498,574.089 888.5,587C 873.954,599.803 857.287,603.803 838.5,599C 833.764,597.08 829.764,594.247 826.5,590.5C 848.826,597.46 867.993,592.46 884,575.5C 893.729,563.012 894.896,549.846 887.5,536C 891.951,533.217 896.117,530.05 900,526.5C 909.035,515.468 909.869,503.801 902.5,491.5 Z" />
  </g>
  <g>
    <path style="opacity:1" fill="#7e69c4" d="M 871.5,498.5 C 872.573,499.251 872.74,500.251 872,501.5C 870.259,502.758 868.426,503.758 866.5,504.5C 860.804,504.447 855.138,504.78 849.5,505.5C 849.5,507.5 849.5,509.5 849.5,511.5C 846.609,512.403 843.609,512.736 840.5,512.5C 840.084,507.25 841.084,502.416 843.5,498C 852.746,495.795 861.746,496.629 870.5,500.5C 871.298,500.043 871.631,499.376 871.5,498.5 Z" />
  </g>
  <g>
    <path style="opacity:1" fill="#a096ec" d="M 866.5,504.5 C 861.244,507.622 855.577,509.955 849.5,511.5C 849.5,509.5 849.5,507.5 849.5,505.5C 855.138,504.78 860.804,504.447 866.5,504.5 Z" />
  </g>
  <g>
    <path style="opacity:1" fill="#fec3ef" d="M 119.5,510.5 C 98.2361,522.285 84.0694,539.952 77,563.5C 63.5568,617.267 81.7235,655.6 131.5,678.5C 87.8333,678.5 44.1667,678.5 0.5,678.5C 0.5,622.5 0.5,566.5 0.5,510.5C 40.1667,510.5 79.8333,510.5 119.5,510.5 Z" />
  </g>
  <g>
    <path style="opacity:1" fill="#fdc3ef" d="M 207.5,510.5 C 224.5,510.5 241.5,510.5 258.5,510.5C 257.452,518.573 255.952,526.573 254,534.5C 239.207,525.021 223.707,517.021 207.5,510.5 Z" />
  </g>
  <g>
    <path style="opacity:1" fill="#fec3ef" d="M 342.5,509.5 C 382.33,510.499 422.33,510.832 462.5,510.5C 460.885,542.499 459.218,574.499 457.5,606.5C 434.544,596.26 410.544,589.76 385.5,587C 363.759,584.689 343.425,588.855 324.5,599.5C 329.887,569.233 335.887,539.233 342.5,509.5 Z" />
  </g>
  <g>
    <path style="opacity:1" fill="#fcc2ef" d="M 539.5,510.5 C 554.833,510.5 570.167,510.5 585.5,510.5C 564.357,519.808 548.524,534.808 538,555.5C 537.503,553.19 537.337,550.857 537.5,548.5C 537.946,535.821 538.612,523.154 539.5,510.5 Z" />
  </g>
  <g>
    <path style="opacity:1" fill="#fec3ef" d="M 989.5,510.5 C 1019.5,510.5 1049.5,510.5 1079.5,510.5C 1079.5,566.5 1079.5,622.5 1079.5,678.5C 958.5,678.5 837.5,678.5 716.5,678.5C 744.79,656.976 763.956,628.976 774,594.5C 774.048,591.122 773.548,587.789 772.5,584.5C 783.842,598.493 798.175,608.16 815.5,613.5C 823.766,620.135 833.099,624.968 843.5,628C 874.065,635.444 903.065,631.444 930.5,616C 960.978,595.677 982.312,568.177 994.5,533.5C 992.954,525.765 991.287,518.099 989.5,510.5 Z" />
  </g>
  <g>
    <path style="opacity:1" fill="#fdfdfe" d="M 652.5,528.5 C 655.899,535.424 658.066,542.757 659,550.5C 662.328,579.76 664.328,609.094 665,638.5C 664.27,642.896 661.77,645.73 657.5,647C 654.518,647.498 651.518,647.665 648.5,647.5C 644.88,645.715 642.047,643.048 640,639.5C 639.825,634.981 639.325,630.647 638.5,626.5C 638.815,622.629 638.482,618.962 637.5,615.5C 628.808,615.169 620.141,615.502 611.5,616.5C 610.08,625.112 608.913,633.779 608,642.5C 605.423,650.543 599.923,653.543 591.5,651.5C 582.939,646.583 580.105,639.25 583,629.5C 585.475,596.569 595.475,566.236 613,538.5C 618.377,530.455 625.544,524.622 634.5,521C 642.535,518.856 648.535,521.356 652.5,528.5 Z" />
  </g>
  <g>
    <path style="opacity:1" fill="#fdfcfe" d="M 192.5,533.5 C 195.999,542.489 198.166,551.822 199,561.5C 201.09,585.812 202.924,610.146 204.5,634.5C 205.367,645.967 200.034,651.633 188.5,651.5C 180.796,648.112 177.129,642.112 177.5,633.5C 177.5,628.5 177.5,623.5 177.5,618.5C 168.318,618.173 159.318,618.507 150.5,619.5C 149.175,628.47 148.009,637.47 147,646.5C 144.403,653.665 139.236,656.665 131.5,655.5C 122.263,650.678 119.096,643.012 122,632.5C 124.475,608.23 130.475,584.897 140,562.5C 146.542,547.629 156.375,535.463 169.5,526C 179.669,521.094 187.336,523.594 192.5,533.5 Z" />
  </g>
  <g>
    <path style="opacity:1" fill="#593796" d="M 652.5,528.5 C 656.126,530.459 659.126,533.126 661.5,536.5C 665.002,546.176 667.169,556.176 668,566.5C 670.134,590.975 671.967,615.475 673.5,640C 673.688,650.98 668.355,655.813 657.5,654.5C 653.195,653.847 650.195,651.514 648.5,647.5C 651.518,647.665 654.518,647.498 657.5,647C 661.77,645.73 664.27,642.896 665,638.5C 664.328,609.094 662.328,579.76 659,550.5C 658.066,542.757 655.899,535.424 652.5,528.5 Z" />
  </g>
  <g>
    <path style="opacity:1" fill="#7d68c4" d="M 661.5,536.5 C 664.764,537.927 667.264,540.261 669,543.5C 671.753,549.925 673.753,556.591 675,563.5C 677.753,591.455 679.92,619.455 681.5,647.5C 681.536,658.835 675.869,663.668 664.5,662C 660.696,660.786 658.362,658.286 657.5,654.5C 668.355,655.813 673.688,650.98 673.5,640C 671.967,615.475 670.134,590.975 668,566.5C 667.169,556.176 665.002,546.176 661.5,536.5 Z" />
  </g>
  <g>
    <path style="opacity:1" fill="#593796" d="M 199.5,539.5 C 202.899,546.424 205.066,553.757 206,561.5C 209.146,591.107 211.146,620.773 212,650.5C 208.832,656.845 203.666,659.512 196.5,658.5C 192.554,657.541 189.887,655.208 188.5,651.5C 200.034,651.633 205.367,645.967 204.5,634.5C 202.924,610.146 201.09,585.812 199,561.5C 198.166,551.822 195.999,542.489 192.5,533.5C 192.435,533.062 192.601,532.728 193,532.5C 196.051,534.05 198.218,536.383 199.5,539.5 Z" />
  </g>
  <g>
    <path style="opacity:1" fill="#7d68c4" d="M 199.5,539.5 C 202.838,540.423 205.338,542.423 207,545.5C 209.789,550.534 211.789,555.868 213,561.5C 216.307,590.262 218.807,619.096 220.5,648C 221.957,661.542 215.957,667.209 202.5,665C 199.591,663.594 197.591,661.428 196.5,658.5C 203.666,659.512 208.832,656.845 212,650.5C 211.146,620.773 209.146,591.107 206,561.5C 205.066,553.757 202.899,546.424 199.5,539.5 Z" />
  </g>
  <g>
    <path style="opacity:1" fill="#5e3c99" d="M 857.5,547.5 C 851.107,547.793 844.773,547.46 838.5,546.5C 837.507,551.12 837.173,555.786 837.5,560.5C 835.833,560.5 834.167,560.5 832.5,560.5C 830.983,560.489 829.816,559.823 829,558.5C 828.766,552.167 828.932,545.834 829.5,539.5C 836.896,539.2 844.229,539.7 851.5,541C 855.74,541.256 857.74,543.422 857.5,547.5 Z" />
  </g>
  <g>
    <path style="opacity:1" fill="#806cc6" d="M 857.5,547.5 C 851.605,556.945 843.271,561.279 832.5,560.5C 834.167,560.5 835.833,560.5 837.5,560.5C 837.173,555.786 837.507,551.12 838.5,546.5C 844.773,547.46 851.107,547.793 857.5,547.5 Z" />
  </g>
  <g>
    <path style="opacity:1" fill="#5c3a97" d="M 634.5,574.5 C 632.24,578.687 630.24,583.021 628.5,587.5C 625.02,588.806 621.687,588.806 618.5,587.5C 621.458,576.585 626.291,566.585 633,557.5C 634.289,563.088 634.789,568.755 634.5,574.5 Z" />
  </g>
  <g>
    <path style="opacity:1" fill="#5b3896" d="M 173.5,578.5 C 170.982,582.877 168.982,587.544 167.5,592.5C 164.167,592.5 160.833,592.5 157.5,592.5C 159.921,580.734 164.755,570.067 172,560.5C 173.072,566.455 173.572,572.455 173.5,578.5 Z" />
  </g>
  <g>
    <path style="opacity:1" fill="#8873c5" d="M 634.5,574.5 C 635.487,579.305 635.821,584.305 635.5,589.5C 629.463,589.829 623.463,589.496 617.5,588.5C 617.624,587.893 617.957,587.56 618.5,587.5C 621.687,588.806 625.02,588.806 628.5,587.5C 630.24,583.021 632.24,578.687 634.5,574.5 Z" />
  </g>
  <g>
    <path style="opacity:1" fill="#806bc4" d="M 173.5,578.5 C 174.383,583.103 174.717,587.77 174.5,592.5C 172.167,592.5 169.833,592.5 167.5,592.5C 168.982,587.544 170.982,582.877 173.5,578.5 Z" />
  </g>
  <g>
    <path style="opacity:1" fill="#fdfdfe" d="M 411.5,619.5 C 413.978,629.888 409.978,635.888 399.5,637.5C 382.861,634.735 370.361,640.735 362,655.5C 354.238,667.207 351.904,679.873 355,693.5C 356.259,698.252 359.092,701.586 363.5,703.5C 365.426,705.293 367.759,706.293 370.5,706.5C 376.058,708.007 381.392,707.674 386.5,705.5C 391.279,703.379 394.279,699.712 395.5,694.5C 394.833,694.167 394.167,693.833 393.5,693.5C 388.74,696.924 383.407,698.257 377.5,697.5C 374.319,696.651 371.652,694.985 369.5,692.5C 364.064,680.776 367.397,673.109 379.5,669.5C 388.283,666.804 397.283,665.971 406.5,667C 412.93,668.359 417.597,671.859 420.5,677.5C 425.265,697.038 419.932,713.204 404.5,726C 387.149,735.48 369.482,735.98 351.5,727.5C 337.15,719.499 329.316,707.166 328,690.5C 327.164,663.333 336.664,640.5 356.5,622C 368.427,612.081 382.094,608.081 397.5,610C 403.79,610.964 408.457,614.131 411.5,619.5 Z" />
  </g>
  <g>
    <path style="opacity:1" fill="#fdc3ef" d="M 533.5,613.5 C 537.059,623.3 541.226,632.966 546,642.5C 555.158,659.479 568.658,671.479 586.5,678.5C 567.833,678.5 549.167,678.5 530.5,678.5C 530.5,677.167 530.5,675.833 530.5,674.5C 531.539,654.169 532.539,633.835 533.5,613.5 Z" />
  </g>
  <g>
    <path style="opacity:1" fill="#5a3897" d="M 637.5,615.5 C 637.5,617.833 637.5,620.167 637.5,622.5C 631.5,622.5 625.5,622.5 619.5,622.5C 618.547,633.346 616.713,644.013 614,654.5C 610.469,658.623 605.969,660.29 600.5,659.5C 596.906,657.576 593.906,654.91 591.5,651.5C 599.923,653.543 605.423,650.543 608,642.5C 608.913,633.779 610.08,625.112 611.5,616.5C 620.141,615.502 628.808,615.169 637.5,615.5 Z" />
  </g>
  <g>
    <path style="opacity:1" fill="#5a3897" d="M 150.5,619.5 C 159.167,619.5 167.833,619.5 176.5,619.5C 176.5,621.833 176.5,624.167 176.5,626.5C 170.5,626.5 164.5,626.5 158.5,626.5C 157.353,637.268 155.52,647.935 153,658.5C 149.215,661.964 144.715,663.298 139.5,662.5C 135.929,661.071 133.262,658.737 131.5,655.5C 139.236,656.665 144.403,653.665 147,646.5C 148.009,637.47 149.175,628.47 150.5,619.5 Z" />
  </g>
  <g>
    <path style="opacity:1" fill="#7d68c4" d="M 637.5,615.5 C 638.482,618.962 638.815,622.629 638.5,626.5C 638.5,627.5 638.5,628.5 638.5,629.5C 634.833,629.5 631.167,629.5 627.5,629.5C 626.826,640.722 624.993,651.722 622,662.5C 613.809,668.544 606.642,667.544 600.5,659.5C 605.969,660.29 610.469,658.623 614,654.5C 616.713,644.013 618.547,633.346 619.5,622.5C 625.5,622.5 631.5,622.5 637.5,622.5C 637.5,620.167 637.5,617.833 637.5,615.5 Z" />
  </g>
  <g>
    <path style="opacity:1" fill="#5a3896" d="M 411.5,619.5 C 415.407,620.407 418.074,622.74 419.5,626.5C 421.311,632.154 420.311,637.321 416.5,642C 410.579,644.761 404.412,645.261 398,643.5C 387.528,644.904 379.195,649.904 373,658.5C 362.671,672.326 359.504,687.326 363.5,703.5C 359.092,701.586 356.259,698.252 355,693.5C 351.904,679.873 354.238,667.207 362,655.5C 370.361,640.735 382.861,634.735 399.5,637.5C 409.978,635.888 413.978,629.888 411.5,619.5 Z" />
  </g>
  <g>
    <path style="opacity:1" fill="#7d68c3" d="M 150.5,619.5 C 159.318,618.507 168.318,618.173 177.5,618.5C 177.5,623.5 177.5,628.5 177.5,633.5C 173.833,633.5 170.167,633.5 166.5,633.5C 165.244,642.477 164.077,651.477 163,660.5C 160.421,668.708 154.921,671.541 146.5,669C 143.247,667.726 140.914,665.56 139.5,662.5C 144.715,663.298 149.215,661.964 153,658.5C 155.52,647.935 157.353,637.268 158.5,626.5C 164.5,626.5 170.5,626.5 176.5,626.5C 176.5,624.167 176.5,621.833 176.5,619.5C 167.833,619.5 159.167,619.5 150.5,619.5 Z" />
  </g>
  <g>
    <path style="opacity:1" fill="#7d68c3" d="M 419.5,626.5 C 428.805,631.137 430.972,638.137 426,647.5C 423.584,650.208 420.584,651.875 417,652.5C 400.143,648.511 387.643,654.178 379.5,669.5C 367.397,673.109 364.064,680.776 369.5,692.5C 369.353,697.214 369.686,701.881 370.5,706.5C 367.759,706.293 365.426,705.293 363.5,703.5C 359.504,687.326 362.671,672.326 373,658.5C 379.195,649.904 387.528,644.904 398,643.5C 404.412,645.261 410.579,644.761 416.5,642C 420.311,637.321 421.311,632.154 419.5,626.5 Z" />
  </g>
  <g>
    <path style="opacity:1" fill="#9dc9fe" d="M 530.5,674.5 C 530.5,675.833 530.5,677.167 530.5,678.5C 549.167,678.5 567.833,678.5 586.5,678.5C 591.095,679.586 595.429,681.252 599.5,683.5C 606.412,687.788 613.745,691.288 621.5,694C 655.428,702.679 687.095,697.512 716.5,678.5C 837.5,678.5 958.5,678.5 1079.5,678.5C 1079.5,734.167 1079.5,789.833 1079.5,845.5C 719.833,845.5 360.167,845.5 0.5,845.5C 0.5,789.833 0.5,734.167 0.5,678.5C 44.1667,678.5 87.8333,678.5 131.5,678.5C 132.609,678.557 133.609,678.89 134.5,679.5C 148.275,692.14 164.441,700.473 183,704.5C 220.094,710.189 253.927,702.189 284.5,680.5C 288.229,727.579 313.229,756.579 359.5,767.5C 362.102,769.81 365.102,771.643 368.5,773C 399.602,785.742 430.602,785.409 461.5,772C 488.23,759.27 510.063,740.77 527,716.5C 528.615,702.434 529.781,688.434 530.5,674.5 Z" />
  </g>
  <g>
    <path style="opacity:1" fill="#593796" d="M 428.5,684.5 C 432.923,702.969 428.256,718.802 414.5,732C 401.208,740.271 386.875,742.604 371.5,739C 366.479,737.153 361.479,735.32 356.5,733.5C 354.763,731.45 352.763,729.617 350.5,728C 350.728,727.601 351.062,727.435 351.5,727.5C 369.482,735.98 387.149,735.48 404.5,726C 419.932,713.204 425.265,697.038 420.5,677.5C 424.122,678.078 426.789,680.412 428.5,684.5 Z" />
  </g>
  <g>
    <path style="opacity:1" fill="#7d68c3" d="M 428.5,684.5 C 432.485,686.321 435.319,689.321 437,693.5C 441.622,719.431 431.788,737.264 407.5,747C 399.167,747.667 390.833,747.667 382.5,747C 372.218,745.361 363.551,740.861 356.5,733.5C 361.479,735.32 366.479,737.153 371.5,739C 386.875,742.604 401.208,740.271 414.5,732C 428.256,718.802 432.923,702.969 428.5,684.5 Z" />
  </g>
  <g>
    <path style="opacity:1" fill="#61419d" d="M 386.5,705.5 C 382.212,704.208 379.212,701.542 377.5,697.5C 383.407,698.257 388.74,696.924 393.5,693.5C 394.167,693.833 394.833,694.167 395.5,694.5C 394.279,699.712 391.279,703.379 386.5,705.5 Z" />
  </g>
  <g>
    <path style="opacity:1" fill="#9d93eb" d="M 369.5,692.5 C 371.652,694.985 374.319,696.651 377.5,697.5C 379.212,701.542 382.212,704.208 386.5,705.5C 381.392,707.674 376.058,708.007 370.5,706.5C 369.686,701.881 369.353,697.214 369.5,692.5 Z" />
  </g>
</svg>